<?xml version="1.0" standalone="no"?>
<!DOCTYPE svg PUBLIC "-//W3C//DTD SVG 20010904//EN"
 "http://www.w3.org/TR/2001/REC-SVG-20010904/DTD/svg10.dtd">
<svg version="1.0" xmlns="http://www.w3.org/2000/svg"
 width="128.000000pt" height="128.000000pt" viewBox="0 0 128.000000 128.000000"
 preserveAspectRatio="xMidYMid meet">

<g transform="translate(0.000000,128.000000) scale(0.100000,-0.100000)"
fill="#000000" stroke="none">
<path d="M515 1266 c-97 -23 -168 -53 -242 -105 -115 -81 -195 -189 -240 -325
-22 -69 -27 -98 -27 -196 0 -98 5 -127 27 -196 47 -141 131 -252 254 -334 112
-75 210 -104 353 -104 98 0 127 4 197 28 195 64 345 215 410 410 22 69 27 98
27 196 0 98 -5 127 -27 196 -47 141 -131 252 -254 334 -135 90 -331 130 -478
96z m238 -51 c235 -50 412 -227 462 -462 27 -126 11 -245 -49 -368 -51 -104
-48 -101 -87 -77 -19 11 -77 31 -129 46 -98 26 -143 51 -148 81 -2 10 12 52
32 94 51 111 69 189 64 288 -4 69 -9 89 -34 130 -96 155 -352 155 -448 -1 -26
-41 -30 -60 -34 -136 -5 -100 16 -187 70 -293 16 -32 28 -68 26 -79 -5 -33
-47 -57 -148 -84 -52 -15 -110 -35 -129 -46 -39 -24 -36 -27 -87 77 -60 123
-76 242 -49 368 49 233 226 412 458 462 82 18 147 18 230 0z m-26 -216 c15 -5
41 -22 57 -37 87 -82 88 -231 0 -421 -67 -145 -44 -180 153 -236 102 -29 135
-44 131 -60 -5 -21 -99 -95 -157 -125 -93 -47 -166 -64 -271 -64 -105 0 -178
17 -271 64 -58 30 -152 104 -157 125 -4 16 29 31 131 60 192 55 222 97 158
223 -108 214 -90 408 44 468 36 16 143 18 182 3z"/>
</g>
</svg>
